<svg xmlns="http://www.w3.org/2000/svg" viewBox="0 0 516.32 397.47"><defs><style>.cls-1,.cls-2{stroke:#000;stroke-miterlimit:10;}.cls-2{fill:none;stroke-width:10px;}</style></defs><title>Ресурс 4</title><g id="Шар_2" data-name="Шар 2"><g id="Шар_1-2" data-name="Шар 1"><path class="cls-1" d="M309.8,148.18h-1.09a14.7,14.7,0,0,0-4-.37l-22.89-2.17c-15.62-1.46-31.6-3.27-47.22-6.18-5.82-1.09-12.72-2.54-20-4.36,1.46,7.27,8,30.88,8.72,34.88h.37c10.9-1.09,21.43-1.46,32.33-1.82a508.16,508.16,0,0,1,62.12,2.54c10.54,0,21.44,6.91,24.34,17.44,3.64,13.08-6.9,31.61-22.52,29.79a429,429,0,0,0-68.3-4.36c-6.18,0-12.35,0-18.53.36,2.91,17.81,5.81,36,6.18,54.14.36,17.43,2.18,41.41-17.08,49.77-8,3.63-18.16,1.09-20.7-8.36A73.8,73.8,0,0,1,199,286.23c-1.45-4.36-1.81-9.44-2.18-13.08-.72-7.26-1.81-14.17-2.54-21.07-1.09-12.71-2.54-25.07-4-37.42a27.8,27.8,0,0,1-8.35-3.63c-9.81-6.54-13.81-18.89-7.63-29.43a20.81,20.81,0,0,1,9.81-8.72c-2.91-16.35-6.18-32.33-10.9-47.95a15.11,15.11,0,0,1,0-9.81c-6.18-6.54-9.08-15.26-6.54-26.52,1.82-9.45,15.62-14.17,23.25-7.27,14.17,4,28.34,7.27,42.51,10.54.72-1.09,1.45-1.82,2.54-1.46,17.44,3.27,34.51,5.82,52,7.63,8.72,1.09,17.8,1.46,26.52,2.18,7.27.37,15.26-.36,22.16,1.82l.36.36c10.9,4.73,17.44,18.53,13.45,29.79-1.46,11.63-11.27,19.62-22.53,20A30.4,30.4,0,0,1,309.8,148.18ZM232.05,97h5.81c-13.8-3.63-33.06-6.54-46.5-11.62,1.46,1.45,3.27,4.72,4.36,6.54C204.44,95.5,228.78,96.23,232.05,97Z"/><polygon class="cls-2" points="511.26 295.5 258.11 392.12 5 295.36 5.05 101.97 258.21 5.35 511.32 102.11 511.26 295.5"/></g></g></svg>