<svg xmlns="http://www.w3.org/2000/svg" viewBox="0 0 799.35 341.03"><defs><style>.cls-1{fill:#b96b85;}</style></defs><title>Ресурс 1</title><g id="Шар_2" data-name="Шар 2"><g id="Шар_1-2" data-name="Шар 1"><path class="cls-1" d="M92.32,256V98.45Q126.49,97,143,111.88t16.46,41.45a64.82,64.82,0,0,1-5.28,26.56,47.31,47.31,0,0,1-16,19.63q-10.74,7.72-27.25,10V256ZM110.87,191a30.11,30.11,0,0,0,21-10.65q8.25-9.57,8.25-27,0-18.26-8.25-26.46t-21-9.28Z"/><path class="cls-1" d="M191.29,230.09,184.55,256H165.31l45.8-160.26h.59L257.5,256H238.26l-6.74-25.88Zm20.31-83.3h-.2l-3.9,21.48-11.92,45.61h31.74l-11.81-45.61Z"/><path class="cls-1" d="M278,256V100.4h18.56V239h40.91v17Z"/><path class="cls-1" d="M356.12,256V95.62H358l43.95,84.57h.2l43.94-84.57h1.86V256H429.36V184.29L430.92,160h-.19L419.3,183.12,402.12,214H402l-17.39-31L373.21,160H373l1.66,24.12V256Z"/><path class="cls-1" d="M484.78,256V100.4h18.55V256Z"/><path class="cls-1" d="M538.53,256V98.45q22.85-1,37.69,5.66t22.12,19.09q7.27,12.46,7.28,29.15a59.43,59.43,0,0,1-5.42,25.84,43.85,43.85,0,0,1-16.46,18.4L611.28,256h-20.9l-22.65-52.44a74.19,74.19,0,0,1-10.65,2.05V256Zm18.55-68.85q12.79-1.08,21-9.62t8.25-25.15q0-16.59-8.25-25.14t-21-9.62Z"/><path class="cls-1" d="M648.24,230.09,641.5,256H622.26l45.8-160.26h.59L714.45,256H695.21l-6.74-25.88Zm20.31-83.3h-.19l-3.91,21.48-11.91,45.61h31.74l-11.82-45.61Z"/><polygon class="cls-1" points="10 191 0 191 0 0 540 0 540 10 10 10 10 191"/><polygon class="cls-1" points="798.63 341.03 258.63 338.99 258.67 328.99 788.66 330.99 789.35 150 799.35 150.03 798.63 341.03"/></g></g></svg>