<svg xmlns="http://www.w3.org/2000/svg" viewBox="0 0 820.07 279.1"><defs><style>.cls-1{fill:#b96b85;}</style></defs><title>Ресурс 8</title><g id="Шар_2" data-name="Шар 2"><g id="Шар_1-2" data-name="Шар 1"><path class="cls-1" d="M94.71,209.49V80.57q35.07-1.2,52,11t16.88,33.93a44,44,0,0,1-5.41,21.74,42.13,42.13,0,0,1-16.43,16.06q-11,6.32-27.95,8.15v38.05Zm19-53.15q13.13-.89,21.59-8.71t8.46-22.14q0-15-8.46-21.66t-21.59-7.59Z"/><path class="cls-1" d="M196.25,188.31l-6.92,21.18H169.6l47-131.16h.61l47,131.16H244.44l-6.92-21.18Zm20.83-68.18h-.2l-4,17.59L200.65,175h32.57l-12.13-37.32Z"/><path class="cls-1" d="M285.16,209.49V82.17h19V195.58h42v13.91Z"/><path class="cls-1" d="M365.35,209.49V78.25h1.9l45.09,69.22h.2l45.08-69.22h1.91V209.49h-19V150.82l1.6-19.9h-.2l-11.72,18.94-17.63,25.26h-.1l-17.83-25.34-11.73-18.86h-.2l1.71,19.74v58.83Z"/><path class="cls-1" d="M497.34,209.49V82.17h19V209.49Z"/><path class="cls-1" d="M552.49,209.49V80.57q23.44-.79,38.67,4.64t22.69,15.62a39.27,39.27,0,0,1,7.47,23.86,40.42,40.42,0,0,1-5.56,21.14q-5.57,9.31-16.88,15.06l28.25,48.6H605.69l-23.24-42.92a95.58,95.58,0,0,1-10.92,1.68v41.24Zm19-56.35q13.11-.88,21.59-7.87t8.46-20.58q0-13.59-8.46-20.58t-21.59-7.87Z"/><path class="cls-1" d="M665,188.31l-6.91,21.18H638.39l47-131.16h.6l47,131.16H713.23l-6.91-21.18Zm20.84-68.18h-.2l-4,17.59L669.45,175H702l-12.12-37.32Z"/><polygon class="cls-1" points="10.26 156.31 0 156.31 0 0 554 0 554 8.18 10.26 8.18 10.26 156.31"/><polygon class="cls-1" points="819.33 279.1 265.33 277.43 265.37 269.24 809.11 270.89 809.81 122.76 820.07 122.79 819.33 279.1"/></g></g></svg>